<svg xmlns="http://www.w3.org/2000/svg" viewBox="0 0 319.26 174.63"><defs><style>.cls-1{fill:#1d1d1b;}.cls-10,.cls-12,.cls-2,.cls-4,.cls-7{fill:#fff;}.cls-11,.cls-3,.cls-5,.cls-8,.cls-9{fill:none;}.cls-10,.cls-12,.cls-3,.cls-4,.cls-7,.cls-8,.cls-9{stroke:#1d1d1b;}.cls-10,.cls-11,.cls-12,.cls-3,.cls-4,.cls-5,.cls-7,.cls-8,.cls-9{stroke-miterlimit:10;}.cls-3,.cls-4{stroke-width:5px;}.cls-5{stroke:#fff;}.cls-11,.cls-5,.cls-8{stroke-width:4px;}.cls-6{fill:#000100;}.cls-7{stroke-width:8px;}.cls-12,.cls-9{stroke-width:3px;}.cls-10{stroke-width:10px;}.cls-11{stroke:#000;stroke-linecap:round;}</style></defs><title>Asset 58</title><g id="Layer_2" data-name="Layer 2"><g id="Layer_1-2" data-name="Layer 1"><ellipse class="cls-1" cx="270.52" cy="108.45" rx="44.56" ry="55.7" transform="translate(-17.59 64.44) rotate(-13.16)"/><ellipse class="cls-2" cx="268.61" cy="110.15" rx="26.22" ry="36.27" transform="translate(-18.02 64.05) rotate(-13.16)"/><ellipse class="cls-1" cx="267.81" cy="110.84" rx="13.95" ry="19.3" transform="translate(-18.2 63.88) rotate(-13.16)"/><ellipse class="cls-2" cx="267.97" cy="110.98" rx="6.89" ry="10.7" transform="translate(-18.23 63.92) rotate(-13.16)"/><line class="cls-3" x1="270.29" y1="96.11" x2="273.79" y2="73.71"/><line class="cls-3" x1="275.83" y1="100.39" x2="284.8" y2="79.57"/><line class="cls-3" x1="276.67" y1="105.93" x2="294.49" y2="91.92"/><line class="cls-3" x1="277.93" y1="109.37" x2="300.47" y2="106.95"/><line class="cls-3" x1="277.65" y1="115.33" x2="299.62" y2="120.92"/><line class="cls-3" x1="276.92" y1="122.4" x2="296.28" y2="134.19"/><line class="cls-3" x1="272.58" y1="125.28" x2="285.97" y2="143.57"/><line class="cls-3" x1="270.62" y1="126.55" x2="270.08" y2="149.22"/><line class="cls-3" x1="266.85" y1="125.23" x2="255.06" y2="144.59"/><line class="cls-3" x1="262.36" y1="121.38" x2="244.54" y2="135.39"/><line class="cls-3" x1="258.02" y1="117.58" x2="235.95" y2="122.75"/><line class="cls-3" x1="255.52" y1="109.14" x2="232.91" y2="107.51"/><line class="cls-3" x1="258.18" y1="100.41" x2="236.89" y2="92.61"/><line class="cls-3" x1="260.05" y1="94.72" x2="244.4" y2="78.32"/><line class="cls-3" x1="264.16" y1="93.46" x2="259.54" y2="69.34"/><path class="cls-4" d="M224.19,58s60.62-28.82,90.9,19.31L295,80.18s-6.82-26.08-65.62-12.24Z"/><path class="cls-1" d="M108.76,49.49S175.2,11.86,227.66,30c0,0,33.26,11.36,9.5,42.09,0,0-13.21,17-39.8-2.79,0,0-6.88-4.7-23-1Z"/><path class="cls-5" d="M107.65,58.15s66.43-37.64,118.9-19.55a34,34,0,0,1,13,8.71"/><path class="cls-5" d="M107.65,65.84s66.43-37.64,118.9-19.55a33.44,33.44,0,0,1,6,2.92"/><path class="cls-6" d="M212.69,10.1l-26.35-.62s-2.69.57-2.63-2.13l.09-3.68s-.42-2.44,2.34-2.38l33.45.79s3.79,1.48,8.59,7.21c0,0,1.06,1.83,6.58,2l11.2.26A6.54,6.54,0,0,0,251.81,8a10,10,0,0,1,9.45-5.9L289.89,0s3.63-.09,3.58,2.15l-.08,3.55a2.46,2.46,0,0,1-2.82,2.5l-30.45,2s-2.83-.51-3.9,1.53l-4.94,5.37L251,27.55l-20.27-.48s3.28-5.41.9-8.16c0,0-13.61-8.51-17-8.67Z"/><ellipse class="cls-7" cx="239.24" cy="33.84" rx="15.79" ry="14.56" transform="translate(199.8 272.23) rotate(-88.66)"/><line class="cls-8" x1="227.03" y1="47.12" x2="251.85" y2="23.41"/><line class="cls-9" x1="224.44" y1="42.22" x2="249.26" y2="18.51"/><path class="cls-10" d="M81.6,154.64s86.38-5,98.16-5.75,40.66-68.18-13.06-88.17c-10.64-3.53-75.44-15.27-123.56,2.12,0,0-27,10.89-35.14,32.58,0,0-5.11,27.21-2,35.86Z"/><path class="cls-1" d="M77.55,152.51l37.83,1s4.7-6.35,6.67-9.74c8.63-14.88,20-58.83-16.06-69.45-20-6-55.06-3.12-89.44,8.5C10.23,85,1.7,110.15,6.43,125.47c2.38,7.68,16.46,5,19,11.5Z"/><ellipse class="cls-10" cx="41.16" cy="134.05" rx="25.33" ry="35.57" transform="translate(-0.84 0.26) rotate(-0.36)"/><ellipse class="cls-1" cx="39.92" cy="134.61" rx="10.56" ry="19.83" transform="translate(-0.85 0.25) rotate(-0.36)"/><line class="cls-11" x1="101.81" y1="144" x2="186.66" y2="138.92"/><line class="cls-11" x1="104.38" y1="137.55" x2="189.23" y2="132.46"/><line class="cls-11" x1="107.74" y1="131.01" x2="191.74" y2="125.97"/><line class="cls-11" x1="113.1" y1="124.57" x2="195.54" y2="119.63"/><line class="cls-11" x1="115.59" y1="118.16" x2="198.03" y2="113.22"/><line class="cls-7" x1="197.97" y1="123.15" x2="235.65" y2="131.49"/><line class="cls-12" x1="200.96" y1="115.32" x2="230.16" y2="122.1"/><line class="cls-12" x1="201.87" y1="110.61" x2="228.34" y2="116.32"/><line class="cls-12" x1="201.98" y1="105.63" x2="227.88" y2="111.22"/><line class="cls-12" x1="201.3" y1="100.66" x2="227.99" y2="106.43"/><line class="cls-12" x1="200.76" y1="95.64" x2="228.1" y2="101.54"/><line class="cls-12" x1="199.51" y1="90.5" x2="228.22" y2="96.7"/><line class="cls-12" x1="193.93" y1="84.31" x2="228.91" y2="91.87"/><line class="cls-12" x1="194.05" y1="79.32" x2="229.03" y2="86.87"/><line class="cls-12" x1="194.51" y1="74.41" x2="229.49" y2="81.96"/><polygon class="cls-1" points="230.87 79.97 233.08 75.52 228.73 73.66 220.58 76.6 223.78 78.72 229.99 80.65 230.87 79.97"/><polygon class="cls-1" points="226.03 76.77 231.03 80.65 229.49 81.96 220.24 79.96 220.95 76.46 226.03 76.77"/><polygon class="cls-1" points="188.02 65.77 194.72 67.31 204.22 72.45 211.16 74.74 210.31 77.85 190.88 74.27 185.91 66.27 188.02 65.77"/></g></g></svg>